name ./resultDataOpenSim/trcMotMarkerGrf/sub06/grf-04-01.mot
datacolumns 19
datarows 25
range 1.53600000 1.63200000
endheader

                time	     ground_force_vx	     ground_force_vy	     ground_force_vz	     ground_force_px	     ground_force_py	     ground_force_pz	   l_ground_force_vx	   l_ground_force_vy	   l_ground_force_vz	   l_ground_force_px	   l_ground_force_py	   l_ground_force_pz	     ground_torque_x	     ground_torque_y	     ground_torque_z	   l_ground_torque_x	   l_ground_torque_y	   l_ground_torque_z	
          1.53600000	        144.75857314	        685.67796986	        -32.63281610	          0.86713520	          0.00000000	          0.13341798	          0.00000000	          0.00000000	          0.00000000	          0.00000000	          0.00000000	          0.00000000	          0.00000000	          4.74919096	          0.00000000	          0.00000000	          0.00000000	          0.00000000	
          1.54000000	        151.46802307	        697.16854981	        -31.93909738	          0.86730091	          0.00000000	          0.13313177	          0.00000000	          0.00000000	          0.00000000	          0.00000000	          0.00000000	          0.00000000	          0.00000000	          4.78109034	          0.00000000	          0.00000000	          0.00000000	          0.00000000	
          1.54400000	        157.76751343	        707.07411809	        -31.05418571	          0.86750514	          0.00000000	          0.13284367	          0.00000000	          0.00000000	          0.00000000	          0.00000000	          0.00000000	          0.00000000	          0.00000000	          4.82425812	          0.00000000	          0.00000000	          0.00000000	          0.00000000	
          1.54800000	        163.82433380	        715.12711279	        -30.20358992	          0.86773893	          0.00000000	          0.13256597	          0.00000000	          0.00000000	          0.00000000	          0.00000000	          0.00000000	          0.00000000	          0.00000000	          4.88524913	          0.00000000	          0.00000000	          0.00000000	          0.00000000	
          1.55200000	        169.95806760	        721.08178656	        -29.56681953	          0.86796859	          0.00000000	          0.13230902	          0.00000000	          0.00000000	          0.00000000	          0.00000000	          0.00000000	          0.00000000	          0.00000000	          4.96101249	          0.00000000	          0.00000000	          0.00000000	          0.00000000	
          1.55600000	        176.52468589	        724.76070170	        -29.29133441	          0.86812751	          0.00000000	          0.13207709	          0.00000000	          0.00000000	          0.00000000	          0.00000000	          0.00000000	          0.00000000	          0.00000000	          5.04012711	          0.00000000	          0.00000000	          0.00000000	          0.00000000	
          1.56000000	        183.75114550	        726.08568478	        -29.48440949	          0.86816730	          0.00000000	          0.13187429	          0.00000000	          0.00000000	          0.00000000	          0.00000000	          0.00000000	          0.00000000	          0.00000000	          5.10720909	          0.00000000	          0.00000000	          0.00000000	          0.00000000	
          1.56400000	        191.64230383	        725.07065775	        -30.14355777	          0.86809868	          0.00000000	          0.13169984	          0.00000000	          0.00000000	          0.00000000	          0.00000000	          0.00000000	          0.00000000	          0.00000000	          5.14859345	          0.00000000	          0.00000000	          0.00000000	          0.00000000	
          1.56800000	        200.02250482	        721.77802359	        -31.11959740	          0.86794830	          0.00000000	          0.13153661	          0.00000000	          0.00000000	          0.00000000	          0.00000000	          0.00000000	          0.00000000	          0.00000000	          5.15638840	          0.00000000	          0.00000000	          0.00000000	          0.00000000	
          1.57200000	        208.62063752	        716.24626676	        -32.17127383	          0.86772090	          0.00000000	          0.13136693	          0.00000000	          0.00000000	          0.00000000	          0.00000000	          0.00000000	          0.00000000	          0.00000000	          5.12895344	          0.00000000	          0.00000000	          0.00000000	          0.00000000	
          1.57600000	        217.10677203	        708.42860947	        -33.03601838	          0.86741724	          0.00000000	          0.13118973	          0.00000000	          0.00000000	          0.00000000	          0.00000000	          0.00000000	          0.00000000	          0.00000000	          5.06804956	          0.00000000	          0.00000000	          0.00000000	          0.00000000	
          1.58000000	        225.11825899	        698.18682214	        -33.47108556	          0.86706476	          0.00000000	          0.13100652	          0.00000000	          0.00000000	          0.00000000	          0.00000000	          0.00000000	          0.00000000	          0.00000000	          4.97473730	          0.00000000	          0.00000000	          0.00000000	          0.00000000	
          1.58400000	        232.31109862	        685.31223187	        -33.28706804	          0.86668652	          0.00000000	          0.13080928	          0.00000000	          0.00000000	          0.00000000	          0.00000000	          0.00000000	          0.00000000	          0.00000000	          4.84651913	          0.00000000	          0.00000000	          0.00000000	          0.00000000	
          1.58800000	        238.38743526	        669.51796717	        -32.37170785	          0.86628923	          0.00000000	          0.13058478	          0.00000000	          0.00000000	          0.00000000	          0.00000000	          0.00000000	          0.00000000	          0.00000000	          4.67715631	          0.00000000	          0.00000000	          0.00000000	          0.00000000	
          1.59200000	        243.06109993	        650.40466666	        -30.69637715	          0.86585195	          0.00000000	          0.13031704	          0.00000000	          0.00000000	          0.00000000	          0.00000000	          0.00000000	          0.00000000	          0.00000000	          4.45901339	          0.00000000	          0.00000000	          0.00000000	          0.00000000	
          1.59600000	        245.99252286	        627.45049886	        -28.31312318	          0.86534856	          0.00000000	          0.12999773	          0.00000000	          0.00000000	          0.00000000	          0.00000000	          0.00000000	          0.00000000	          0.00000000	          4.18670431	          0.00000000	          0.00000000	          0.00000000	          0.00000000	
          1.60000000	        246.75890306	        600.07138541	        -25.34164993	          0.86477656	          0.00000000	          0.12963333	          0.00000000	          0.00000000	          0.00000000	          0.00000000	          0.00000000	          0.00000000	          0.00000000	          3.86039177	          0.00000000	          0.00000000	          0.00000000	          0.00000000	
          1.60400000	        244.88942114	        567.73524462	        -21.95004762	          0.86415709	          0.00000000	          0.12923043	          0.00000000	          0.00000000	          0.00000000	          0.00000000	          0.00000000	          0.00000000	          0.00000000	          3.48743201	          0.00000000	          0.00000000	          0.00000000	          0.00000000	
          1.60800000	        239.92311584	        530.07834138	        -18.34065718	          0.86351341	          0.00000000	          0.12881056	          0.00000000	          0.00000000	          0.00000000	          0.00000000	          0.00000000	          0.00000000	          0.00000000	          3.08217221	          0.00000000	          0.00000000	          0.00000000	          0.00000000	
          1.61200000	        231.44406980	        487.03250998	        -14.73569983	          0.86288694	          0.00000000	          0.12842446	          0.00000000	          0.00000000	          0.00000000	          0.00000000	          0.00000000	          0.00000000	          0.00000000	          2.66474280	          0.00000000	          0.00000000	          0.00000000	          0.00000000	
          1.61600000	        219.11839250	        439.00790875	        -11.35196255	          0.86233006	          0.00000000	          0.12815278	          0.00000000	          0.00000000	          0.00000000	          0.00000000	          0.00000000	          0.00000000	          0.00000000	          2.25973532	          0.00000000	          0.00000000	          0.00000000	          0.00000000	
          1.62000000	        202.77957805	        387.10302216	         -8.37153447	          0.86191903	          0.00000000	          0.12809164	          0.00000000	          0.00000000	          0.00000000	          0.00000000	          0.00000000	          0.00000000	          0.00000000	          1.89480493	          0.00000000	          0.00000000	          0.00000000	          0.00000000	
          1.62400000	        182.55116009	        333.20523601	         -5.91946263	          0.86180312	          0.00000000	          0.12831328	          0.00000000	          0.00000000	          0.00000000	          0.00000000	          0.00000000	          0.00000000	          0.00000000	          1.59832108	          0.00000000	          0.00000000	          0.00000000	          0.00000000	
          1.62800000	        158.94696929	        279.81219181	         -4.04766831	          0.86226502	          0.00000000	          0.12882386	          0.00000000	          0.00000000	          0.00000000	          0.00000000	          0.00000000	          0.00000000	          0.00000000	          1.39501601	          0.00000000	          0.00000000	          0.00000000	          0.00000000	
          1.63200000	        132.91154319	        229.53609488	         -2.72522193	          0.86374848	          0.00000000	          0.12951858	          0.00000000	          0.00000000	          0.00000000	          0.00000000	          0.00000000	          0.00000000	          0.00000000	          1.29950780	          0.00000000	          0.00000000	          0.00000000	          0.00000000	
